<svg id="Layer_1" data-name="Layer 1" xmlns="http://www.w3.org/2000/svg" viewBox="0 0 96 96"><defs><style>.cls-1{fill:#e6dbce;}.cls-2{fill:#cc1f1f;}.cls-3{fill:#f23030;}.cls-4{fill:#ffd5a6;}.cls-5{fill:#1e1d1d;}.cls-6{fill:#444242;}.cls-7{fill:#fff;}</style></defs><title>96 x 96px</title><circle class="cls-1" cx="48.08" cy="48.09" r="47.96"/><path class="cls-2" d="M33.42,79.61C37.94,86.75,50.26,93.16,54,95c5.19-3.78,10.26-10.08,11.9-13.67,1.34-2.93,1.11-6.63-4.76-5.73-11.23,1.7-21.6-1.6-24.34-1.83C32.57,73.39,32,77.41,33.42,79.61Z"/><path d="M66.87,76.34c-.53-.82-1.67-1.8-4.1-1.8a11.59,11.59,0,0,0-1.79.14,43.39,43.39,0,0,1-6.57.48,70.31,70.31,0,0,1-14.56-1.78c-1.36-.28-2.33-.48-3-.54l-.61,0a4.16,4.16,0,0,0-3.87,2.08,5.32,5.32,0,0,0,.27,5.2c4.48,7.09,16.13,13.35,20.93,15.71l.49.24.45-.32c5.35-3.9,10.49-10.32,12.19-14C67.66,79.63,67.72,77.67,66.87,76.34Zm-1.82,4.6c-1.56,3.41-6.36,9.33-11.16,13-4.15-2.07-15.52-8.2-19.7-14.8A3.5,3.5,0,0,1,34,75.78a2.37,2.37,0,0,1,2.27-1.13,3.46,3.46,0,0,1,.45,0c.55,0,1.53.25,2.77.51A73.3,73.3,0,0,0,54.41,77a45.9,45.9,0,0,0,6.85-.5c2.09-.32,3.51,0,4.07.84A4.08,4.08,0,0,1,65.05,80.94Z"/><path class="cls-3" d="M62.22,82.3c1-1.84,2-4-1.1-3.42-8.3,1.47-11.47-.49-11.71,1s3.05,4,7.56,4c1.27,0-.12,2.44-6.59,2.57-2.23,0,3.16,4.92,3.54,4.76C55.63,90.49,60.63,85.35,62.22,82.3Z"/><path class="cls-4" d="M77.72,46.79c2.56-1.1,4.27,3.29,2.8,8.54l.38.14c-1.12,3.06-2.31,5.7-2.63,8.9,0,.42-.1.84-.18,1.27l-.37-.06c-1.22,3.54-3.4,4.59-4.76,4.52-2.2-.13-4.76-2.75-6.59-3.67-3.18-1.58-6.21.81-12,2.33-7,1.83-15-1.72-17.45-7.82S38.11,46.48,44,44.34c6.1-2.19,15.13,6.11,20.74,6.59C68.08,51.23,72.29,49.11,77.72,46.79Z"/><path class="cls-5" d="M83,47.23a33.89,33.89,0,0,1-2.07,8.24h0l-.38-.14c1.47-5.25-.24-9.64-2.8-8.54-5.43,2.32-9.64,4.44-12.94,4.14-5.61-.48-14.64-8.78-20.74-6.59-5.93,2.14-9.52,10.5-7.08,16.6s10.49,9.65,17.45,7.82c5.75-1.52,8.78-3.91,12-2.33C68.2,67.35,70.76,70,73,70.1c1.36.07,3.54-1,4.76-4.52l.37.06c-1,5.34-5,11.16-12.82,13.43-8.48,2.45-33.36-.75-43.91-13.76-8-9.92-6.12-22.58-3.75-29.69l-.21-.08c-1.43-.35-4.11-1.2-4.52-3.39-.83-4.54,16.21-22.28,46.54-15.64C79.13,20.83,84.16,36.93,83,47.23Z"/><path class="cls-6" d="M74.06,29.34c-2.85-3.79-14.89-12.94-32.22-9.28s2,16.48,10,20c12.69,5.61,14.38,5.19,20.74,2.44C79.91,39.34,77,33.24,74.06,29.34Z"/><path class="cls-6" d="M64.78,69.18c-1.55-.58-13.36,2.93-11.53,5.49s8.79,2.56,12.81.92S70.64,71.38,64.78,69.18Z"/><path d="M79.15,57a27.71,27.71,0,0,0-1.94,7c0,.3-.07.59-.11.88a7.62,7.62,0,0,1-1.88,3.2A3.07,3.07,0,0,1,73,69.18c-1.17-.06-2.67-1.15-4-2.1a16.24,16.24,0,0,0-2.24-1.46c-2.52-1.26-4.91-.39-7.94.72-1.35.5-2.88,1.06-4.66,1.53-6.61,1.73-14.1-1.59-16.37-7.27a12.22,12.22,0,0,1,.49-9.32,11.12,11.12,0,0,1,6.05-6.07c3.27-1.18,7.7,1.12,12,3.35,3,1.58,5.92,3.08,8.36,3.29,3.09.27,6.67-1.3,11.22-3.29l2.16-.93a.81.81,0,0,1,1,.14,5,5,0,0,1,1.1,3.53,14,14,0,0,1-.46,4.33Zm2.49-8.17a4.92,4.92,0,0,0-1.39-2.47A2.6,2.6,0,0,0,77.36,46l-2.17.94c-4.31,1.88-7.71,3.36-10.33,3.13-2.07-.18-4.79-1.59-7.67-3.08-4.64-2.41-9.44-4.9-13.46-3.45a12.88,12.88,0,0,0-7.09,7,13.85,13.85,0,0,0-.53,10.75c2.6,6.49,11.08,10.32,18.53,8.36a50,50,0,0,0,4.83-1.58c2.82-1,4.68-1.71,6.49-.81a17.55,17.55,0,0,1,2,1.31c1.53,1.1,3.26,2.35,5,2.45h.18a4.24,4.24,0,0,0,2-.53,15.85,15.85,0,0,1-4.2,4.66A18.58,18.58,0,0,1,65,78a25.54,25.54,0,0,1-6.66.71,54.53,54.53,0,0,1-6.86-.47A64.28,64.28,0,0,1,38,75a41.86,41.86,0,0,1-12-6.51,24.75,24.75,0,0,1-7.87-10.78,29.88,29.88,0,0,1-1.49-13.42,58.11,58.11,0,0,1,1.18-6.77c.51-2.24,1.08-4.47,1.82-6.73a14.52,14.52,0,0,0-2,3c-.18.35-.33.71-.49,1.07a9.58,9.58,0,0,1-2.49-1.41,2.86,2.86,0,0,1-.81-1,2.13,2.13,0,0,1-.09-.27,1.27,1.27,0,0,1,0-.18s0-.07,0-.1a1.88,1.88,0,0,1,.07-.59,8.29,8.29,0,0,1,1.48-2.74,19.54,19.54,0,0,1,2.25-2.49,35.81,35.81,0,0,1,11.63-7c8.58-3.29,18.1-3.72,27.16-2.11A46.33,46.33,0,0,1,63,18.54a31.34,31.34,0,0,1,6.18,2.81,26,26,0,0,1,9.36,9.54,27.59,27.59,0,0,1,3.5,12.92A25.2,25.2,0,0,1,81.64,48.86Zm-1.26-19A28,28,0,0,0,70.25,19.6a33.64,33.64,0,0,0-6.59-3,47.67,47.67,0,0,0-7-1.66c-9.35-1.62-19.23-1.16-28.18,2.31A37.59,37.59,0,0,0,16.3,24.76a21.2,21.2,0,0,0-2.45,2.72,10,10,0,0,0-1.79,3.42,3.89,3.89,0,0,0-.1,1.16,1.88,1.88,0,0,0,0,.33l.06.25a3.51,3.51,0,0,0,.21.55,4.06,4.06,0,0,0,1.41,1.64,7.1,7.1,0,0,0,3,1.15c-.16.38-.3.76-.43,1.15a31.59,31.59,0,0,0-1.48,7,31.82,31.82,0,0,0,1.52,14.27,26.65,26.65,0,0,0,8.41,11.68A44,44,0,0,0,37.3,77a64.31,64.31,0,0,0,13.85,3.4,56.59,56.59,0,0,0,7.14.5,27.44,27.44,0,0,0,7.26-.79,20.74,20.74,0,0,0,6.63-3.23,18.33,18.33,0,0,0,4.94-5.54,17.64,17.64,0,0,0,2.26-7.06,25.7,25.7,0,0,1,1.82-6.48A51.17,51.17,0,0,0,83.42,51a28.73,28.73,0,0,0,.79-7.23A29.66,29.66,0,0,0,80.38,29.86Z"/><path d="M59.9,62.53a77.71,77.71,0,0,0-19-12.08,20,20,0,0,1,7.81-2.08A106.16,106.16,0,0,1,59.53,60.21a9.1,9.1,0,0,0,.68-3.11A7.94,7.94,0,0,1,59.9,62.53Z"/><path d="M46.84,52.52c-1.34,2.08-2.38,10.25,1.9,12.39s7.87-2.5,8.29-5.13A34.46,34.46,0,0,0,46.84,52.52Z"/><path class="cls-7" d="M47.7,55.57c-.52.78-.92,5,.55,5S51.42,59,51.54,58,48.43,54.48,47.7,55.57Z"/><path d="M67.22,63c5.56-6.48,9.7-7.57,12.57-9.4a9.31,9.31,0,0,0-4.15-2,49.57,49.57,0,0,0-8.17,9.24A11.2,11.2,0,0,1,67,57.93,10.2,10.2,0,0,0,67.22,63Z"/><path d="M75.7,55.21c.86,1.58.15,10.73-3.39,10.73-2.44,0-3.41-3.35-3.32-5.36A17.12,17.12,0,0,1,75.7,55.21Z"/><path class="cls-7" d="M70.06,60.82c-.35.72.42,2.37,1.4,2.31s1.58-2.77,1.28-3.66S70.55,59.79,70.06,60.82Z"/></svg>